<svg id="SH_Logo_links" xmlns="http://www.w3.org/2000/svg" viewBox="0 0 1096 112"><polygon points="0 0 0 112 212 112 212 0 0 0" fill="#fff02d"/><polygon points="66 12 106 12 146 12 146 36 66 36 66 12" fill="#e6002d"/><polygon points="66 76 106 76 146 76 146 100 66 100 66 76" fill="#e6002d"/><polygon points="110 44 148 44 186 44 186 68 110 68 110 44" fill="#e6002d"/><polygon points="26 44 64 44 102 44 102 68 26 68 26 44" fill="#e6002d"/><path d="M247.555,94.2965Q239.3886,87.56,239,74.7265l15.164-2.0725q.2582,7.5166,4.6651,11.015,4.4051,3.5,12.5714,3.5,6.74,0,10.4337-2.6578a8.1721,8.1721,0,0,0,3.6941-6.9334,6.8819,6.8819,0,0,0-2.2683-5.3137,16.0047,16.0047,0,0,0-5.638-3.2393q-3.3728-1.1686-9.3322-2.5926a97.578,97.578,0,0,1-14.191-4.3427,23.8973,23.8973,0,0,1-9.4607-7.0619q-3.9541-4.7937-3.9532-13.09A21.6874,21.6874,0,0,1,244.51,29.3669a25.47,25.47,0,0,1,10.8865-8.7488,39.9894,39.9894,0,0,1,16.5227-3.176q13.3485,0,21.32,6.5458t8.49,18.5971L286.5646,44.66q-.3886-6.8672-4.3408-10.1094-3.9572-3.2393-10.5642-3.2393-6.22,0-9.785,2.7212a8.4241,8.4241,0,0,0-3.5636,6.9986,6.8751,6.8751,0,0,0,2.2683,5.3137,15.9389,15.9389,0,0,0,5.638,3.2393q3.37,1.1658,9.4607,2.5926a109.2618,109.2618,0,0,1,14.1258,4.2775,23.3284,23.3284,0,0,1,9.526,6.9986q3.9542,4.7937,3.9531,13.09a21.5936,21.5936,0,0,1-4.0164,12.959,25.3807,25.3807,0,0,1-11.2761,8.555,44.1441,44.1441,0,0,1-16.8489,2.98Q255.7164,101.0361,247.555,94.2965Z"/><path d="M317.0509,93.5193q-7.4516-7.9023-7.4515-23.0684V65.9144a35.8167,35.8167,0,0,1,3.5636-16.4593,25.78,25.78,0,0,1,10.1093-10.8233,29.6532,29.6532,0,0,1,15.2293-3.8226q11.4027,0,18.4033,6.2214,6.9977,6.22,8.0348,16.8489l-13.9972,2.203a13.5632,13.5632,0,0,0-3.4351-8.7487,11.0411,11.0411,0,0,0-8.3591-3.176,11.19,11.19,0,0,0-9.33,4.5365q-3.5,4.5386-3.5,13.6077v3.7594q0,9.0741,3.5655,13.5424a11.4223,11.4223,0,0,0,9.3955,4.4713q11.0141,0,11.7942-13.4772l14.2563,2.203q-1.0412,11.5362-8.2306,18.079-7.1934,6.5467-19.2458,6.5458Q324.5044,101.4257,317.0509,93.5193Z"/><path d="M423.3413,41.1593q5.5709,6.354,5.5728,17.8852V100H412.4548V61.7676q0-6.351-3.0455-9.85t-8.6182-3.5a11.0551,11.0551,0,0,0-8.6183,3.5q-3.177,3.5-3.176,9.72V100H372.5375V12h16.4593V32.4758q0,4.2774-.259,12.8325a20.6949,20.6949,0,0,1,7.9063-7.7778,22.9257,22.9257,0,0,1,11.2741-2.7212Q417.7666,34.8093,423.3413,41.1593Z"/><path d="M522.1766,36.234a197.9142,197.9142,0,0,1-4.73,24.1719q-3.3045,12.8947-11.8575,39.5929H488.0912L477.7228,55.545,466.3182,99.9988H448.9511q-8.0358-26.178-11.2089-39.2706A219.29,219.29,0,0,1,433.14,36.234h16.7184q1.1658,9.5932,3.3045,20.282,2.1388,10.6936,6.4153,27.8007L471.1138,36.234h14.7744l11.0171,47.9522q4.5355-17.3651,6.7395-27.9293,2.2011-10.56,3.37-20.0229Z"/><path d="M568.7673,36.235h16.2V100H569.4159l-.13-10.24a20.07,20.07,0,0,1-7.7758,8.7487,23.9058,23.9058,0,0,1-24.1066-.7119,23.7486,23.7486,0,0,1-8.4878-10.5642A40.862,40.862,0,0,1,525.87,70.71V65.9144a40.2356,40.2356,0,0,1,3.1107-16.4593,24.73,24.73,0,0,1,8.8121-10.8233,23.4115,23.4115,0,0,1,13.3486-3.8226q12.18,0,17.6261,9.9788ZM534.4228,12h16.8489V26.7743H534.4228Zm34.3445,54.1735q0-9.0713-3.5-13.5444a11.5135,11.5135,0,0,0-9.5893-4.4713,11.3359,11.3359,0,0,0-9.5259,4.4713q-3.4351,4.4731-3.4351,13.5444v3.8879q0,9.2046,3.4351,13.6076a11.5329,11.5329,0,0,0,9.6564,4.4061,11.3358,11.3358,0,0,0,9.526-4.4713q3.4292-4.47,3.4331-13.5424ZM561.381,12h16.847V26.7743H561.381Z"/><path d="M641.1476,38.5033a24.209,24.209,0,0,1,8.49,10.6274,40.9175,40.9175,0,0,1,3.0454,16.5246V70.32q0,14.3868-6.8681,22.7461-6.873,8.3592-18.4032,8.3592-11.6667,0-17.108-9.0731V100H594.2317V12H610.691V44.0108q5.7013-9.1986,17.8851-9.2016A21.8555,21.8555,0,0,1,641.1476,38.5033Zm-5.3138,27.67q0-9.0713-3.433-13.5444a11.4769,11.4769,0,0,0-9.6565-4.4713,11.3388,11.3388,0,0,0-9.526,4.4713q-3.435,4.4731-3.433,13.5444v3.8879q0,9.0741,3.433,13.5424a11.4717,11.4717,0,0,0,9.6565,4.4713,11.3359,11.3359,0,0,0,9.526-4.4713q3.432-4.47,3.433-13.5424Z"/><path d="M677.9541,26.7743H660.1975V12h17.7566ZM677.3055,100h-16.59V36.235h16.59Z"/><path d="M692.5837,96.1119q-6.7425-5.3127-7.2577-15.2945l14.1258-1.944q.2582,5.1852,3.2413,7.8411,2.9781,2.6579,9.4607,2.6579,11.014,0,11.015-6.87a5.4309,5.4309,0,0,0-3.3045-5.3138,48.9412,48.9412,0,0,0-10.4337-2.98,81.6373,81.6373,0,0,1-11.5984-3.1107,17.98,17.98,0,0,1-7.8411-5.638q-3.2422-3.9513-3.2392-10.8213a17.4008,17.4008,0,0,1,6.8681-14.45q6.867-5.3781,18.7928-5.379,11.2752,0,17.8852,5.3137,6.609,5.3157,6.9986,14.7744l-13.9972,2.0745q-.65-10.1093-11.2762-10.1093-4.7965,0-7.3862,1.8787a5.9875,5.9875,0,0,0-2.5926,5.12,5.3288,5.3288,0,0,0,3.3045,5.1832,48.7436,48.7436,0,0,0,10.3032,2.9822,78.8517,78.8517,0,0,1,11.6637,3.1107,18.537,18.537,0,0,1,7.8411,5.6361q3.3045,3.9571,3.3045,10.8232a17.2856,17.2856,0,0,1-6.9967,14.45q-7.0005,5.378-19.4415,5.379Q699.3213,101.4257,692.5837,96.1119Z"/><path d="M751.6142,93.5193q-7.4544-7.9023-7.4515-23.0684V65.9144a35.818,35.818,0,0,1,3.5636-16.4593,25.7686,25.7686,0,0,1,10.1094-10.8233,29.6506,29.6506,0,0,1,15.2273-3.8226q11.4056,0,18.4052,6.2214,6.9976,6.22,8.0349,16.8489l-13.9972,2.203a13.5632,13.5632,0,0,0-3.4351-8.7487,11.0414,11.0414,0,0,0-8.3592-3.176,11.19,11.19,0,0,0-9.33,4.5365q-3.5,4.5386-3.5,13.6077v3.7594q0,9.0741,3.5636,13.5424a11.4258,11.4258,0,0,0,9.3974,4.4713q11.0142,0,11.7923-13.4772l14.2563,2.203q-1.0381,11.5362-8.2287,18.079-7.1934,6.5467-19.2457,6.5458Q759.0648,101.4257,751.6142,93.5193Z"/><path d="M859.3761,41.1593q5.5737,6.354,5.5747,17.8852V100H848.49V61.7676q0-6.351-3.0454-9.85t-8.6183-3.5a11.055,11.055,0,0,0-8.6182,3.5q-3.177,3.5-3.176,9.72V100H808.5722V12h16.4594V32.4758q0,4.2774-.2591,12.8324a20.696,20.696,0,0,1,7.9063-7.7777,22.9336,22.9336,0,0,1,11.2762-2.7212Q853.8033,34.8093,859.3761,41.1593Z"/><path d="M974.4985,100H957.0009V65.7839H922.4466V100H904.951V18.35h17.4956V51.5276h34.5543V18.35h17.4976Z"/><path d="M1024.9456,36.235h16.2V100h-15.5516l-.13-10.24a20.0711,20.0711,0,0,1-7.7758,8.7487,23.9058,23.9058,0,0,1-24.1066-.7119,23.7486,23.7486,0,0,1-8.4878-10.5642A40.8272,40.8272,0,0,1,982.0461,70.71V65.9144a40.2686,40.2686,0,0,1,3.1107-16.4593,24.7471,24.7471,0,0,1,8.8141-10.8233,23.4115,23.4115,0,0,1,13.3486-3.8226q12.18,0,17.6261,9.9788Zm0,29.9385q0-9.0713-3.5-13.5444a11.5135,11.5135,0,0,0-9.5893-4.4713,11.3359,11.3359,0,0,0-9.5259,4.4713q-3.4352,4.4731-3.4351,13.5444v3.8879q0,9.2046,3.4351,13.6076a11.5317,11.5317,0,0,0,9.6545,4.4061,11.3358,11.3358,0,0,0,9.5259-4.4713q3.4321-4.47,3.4351-13.5424Z"/><path d="M1068.5766,100h-16.4593V12h16.4593Z"/><path d="M1096,100h-16.4593V12H1096Z"/></svg>