<?xml version="1.0" encoding="UTF-8"?><!DOCTYPE svg><svg width="238px" height="57px" enable-background="new 0 0 238.1 56.7" version="1.1" viewBox="0 0 238.1 56.7" xml:space="preserve" xmlns="http://www.w3.org/2000/svg"><style type="text/css">.st0{fill:#1D1D1B;}.st1{fill:#FFFFFF;}.st2{fill:#F84914;}</style><path class="st0" d="m90.1 49.9h-4.8l-2.9-12.5h-0.1c-0.5 2-1 4.1-1.4 6.2s-0.9 4.2-1.4 6.2h-4.9l-5.4-19.7h5.6l2.5 11.5h0.1l2.7-11.5h4.8l2.7 11.5h0.1l2.5-11.5h5.5l-5.6 19.8zm19.5-19.7h5.6v12c0 2.9-0.8 5-2.3 6.3s-3.7 2-6.6 2c-1.6 0-2.9-0.2-4-0.6s-2-0.9-2.7-1.6-1.2-1.5-1.5-2.5-0.5-2.1-0.5-3.3v-12.3h5.7v11.4c0 0.8 0.1 1.5 0.2 2s0.3 0.9 0.5 1.3c0.2 0.3 0.6 0.5 1 0.7 0.4 0.1 0.9 0.2 1.5 0.2 1.1 0 1.9-0.3 2.3-0.9 0.5-0.6 0.7-1.7 0.7-3.3v-11.4zm-7.9-2.2c-0.9 0-1.7-0.3-2.3-0.9s-0.9-1.3-0.9-2.2 0.3-1.6 0.9-2.2 1.4-0.9 2.3-0.9 1.6 0.3 2.2 0.9 0.9 1.3 0.9 2.2-0.3 1.6-0.9 2.2-1.3 0.9-2.2 0.9zm9.7 0c-1 0-1.7-0.3-2.3-0.9s-0.9-1.3-0.9-2.2 0.3-1.6 0.9-2.2 1.4-0.9 2.3-0.9 1.6 0.3 2.2 0.9 0.9 1.3 0.9 2.2-0.3 1.6-0.9 2.2-1.3 0.9-2.2 0.9zm22.7 15.9c0 1.1-0.2 2.1-0.6 2.9s-0.9 1.5-1.6 2-1.5 0.9-2.5 1.1c-1 0.3-2 0.4-3.1 0.4-0.8 0-1.6-0.1-2.4-0.2s-1.6-0.3-2.3-0.5c-0.8-0.2-1.5-0.5-2.2-0.7-0.7-0.3-1.3-0.6-1.8-1l1.8-4.2c1 0.5 2 1 3.2 1.4s2.4 0.7 3.4 0.7c0.8 0 1.4-0.1 1.7-0.3 0.4-0.2 0.5-0.6 0.5-1.1s-0.3-1-0.8-1.2c-0.6-0.3-1.5-0.6-2.9-1-0.8-0.2-1.5-0.4-2.3-0.7s-1.5-0.6-2.1-1.1-1.1-1-1.5-1.7-0.6-1.6-0.6-2.7c0-1.9 0.7-3.4 2-4.6 1.4-1.1 3.3-1.7 5.8-1.7 1.5 0 2.9 0.2 4.3 0.6s2.6 1 3.5 1.7l-2.4 3.9c-1-0.6-2-1-3-1.3s-1.8-0.5-2.5-0.5c-1.4 0-2.1 0.4-2.1 1.2 0 0.5 0.3 0.9 0.8 1.1 0.6 0.3 1.5 0.6 2.8 1 0.9 0.3 1.7 0.6 2.5 0.9s1.5 0.7 2.1 1.2 1.1 1.1 1.4 1.8c0.7 0.8 0.9 1.6 0.9 2.6zm14.1 5.7c-0.6 0.3-1.2 0.4-2 0.5s-1.6 0.2-2.3 0.2c-1.9 0-3.4-0.5-4.4-1.4s-1.5-2.3-1.5-4.2v-10h-2.4v-4.5h2.4v-6.2h5.6v6.2h4.2v4.5h-4.2v8.8c0 1 0.2 1.6 0.6 2s0.9 0.5 1.6 0.5 1.5-0.2 2.4-0.5v4.1zm10.6-19.8c2.7 0 4.8 0.9 6.2 2.6 1.5 1.7 2.2 4.2 2.2 7.4v1c0 0.3 0 0.6-0.1 1h-12c0 1.2 0.4 2.2 1 2.9s1.6 1.1 2.9 1.1c0.9 0 1.7-0.2 2.4-0.7s1.2-0.9 1.6-1.4l3.4 3.6c-1.2 1.2-2.4 2-3.7 2.4s-2.5 0.7-3.8 0.7c-1.6 0-3-0.2-4.2-0.7s-2.2-1.2-2.9-2c-0.8-0.9-1.4-2-1.7-3.2-0.4-1.2-0.6-2.6-0.6-4.2s0.2-3 0.6-4.3 1-2.4 1.9-3.3c0.8-0.9 1.8-1.6 2.9-2.1 1.2-0.6 2.5-0.8 3.9-0.8zm-0.3 4.4c-0.6 0-1.1 0.1-1.5 0.3s-0.7 0.5-1 0.8-0.5 0.7-0.6 1.1c-0.2 0.4-0.3 0.9-0.3 1.4h6.7c0-1.1-0.3-1.9-0.9-2.6-0.5-0.6-1.3-1-2.4-1zm24 15.7v-11c0-1.6-0.3-2.7-0.8-3.3s-1.3-0.9-2.3-0.9c-1.1 0-1.9 0.3-2.4 1s-0.8 1.8-0.8 3.4v10.8h-5.6v-19.7h5.2v1.8c0.8-0.8 1.6-1.4 2.5-1.7s1.8-0.5 2.9-0.5c2.5 0 4.3 0.7 5.3 2s1.6 3.4 1.6 6.2v12h-5.6zm19.1-20.1c0.5 0 0.9 0 1.2 0.1 0.4 0.1 0.7 0.1 0.9 0.2v5.3c-0.5-0.2-1-0.3-1.5-0.4s-1-0.1-1.3-0.1c-0.5 0-0.9 0.1-1.3 0.2s-0.8 0.3-1.1 0.7c-0.3 0.3-0.6 0.7-0.8 1.3-0.2 0.5-0.3 1.2-0.3 2v11h-5.4v-19.9h5.2v1.9c0.5-0.7 1.1-1.2 1.9-1.7 0.7-0.4 1.5-0.6 2.5-0.6zm22.2 10.2c0 1.6-0.2 3-0.7 4.2-0.5 1.3-1.1 2.4-2 3.3s-1.9 1.6-3 2.1c-1.2 0.5-2.5 0.8-3.9 0.8-1.5 0-2.8-0.3-3.9-0.8-1.2-0.5-2.2-1.2-3-2.1s-1.5-2-1.9-3.2c-0.5-1.2-0.7-2.6-0.7-4.1 0-1.6 0.2-3 0.7-4.3 0.4-1.3 1.1-2.4 1.9-3.3s1.9-1.6 3-2.1c1.2-0.5 2.5-0.8 4-0.8 1.4 0 2.7 0.3 3.9 0.8s2.2 1.2 3 2.1 1.5 2 2 3.2c0.3 1.3 0.6 2.7 0.6 4.2zm-5.7 0c0-1.5-0.3-2.8-0.9-3.8s-1.6-1.5-3-1.5c-0.8 0-1.4 0.1-1.9 0.4s-0.9 0.6-1.2 1.1-0.6 1-0.7 1.7-0.2 1.4-0.2 2.1c0 1.8 0.3 3.2 0.9 4.2s1.6 1.5 3.1 1.5c0.7 0 1.3-0.2 1.8-0.5s0.9-0.7 1.2-1.3c0.3-0.5 0.5-1.1 0.7-1.8 0.1-0.6 0.2-1.4 0.2-2.1zm20 9.6c-0.6 0.3-1.2 0.4-2 0.5s-1.6 0.2-2.3 0.2c-1.9 0-3.4-0.5-4.4-1.4s-1.5-2.3-1.5-4.2v-10h-2.4v-4.5h2.4v-6.2h5.6v6.2h4.2v4.5h-4.2v8.8c0 1 0.2 1.6 0.6 2s0.9 0.5 1.6 0.5 1.5-0.2 2.4-0.5v4.1z"/><rect class="st1" width="56.7" height="56.7"/><path class="st2" d="m0 0v56.7h56.7v-56.7h-56.7zm27.8 45.2l2.5 2.9c-0.8 1.3-2.1 1.3-2.1 1.3s-1.7 0.1-2-1.6c-0.1-1 0.8-1.9 1.6-2.6zm-0.7-3.9c0-0.6 0.3-1.3 1.1-1.4 0.7-0.1 1.2 0.4 1.3 1 0.2 1.2-1.3 2.1-1.3 2.1s-1-0.8-1.1-1.7zm21.8 8.1h-6.5l-2.9-12.9-2.8 12.9h-2.3l-1.6-1.7s0.8-1.5 1.1-3.1h-1.9c-0.2 0.8-0.6 1.6-0.6 1.6l-1.8-2.1s2.3-1.4 1.8-3.6c-0.3-1.4-1.6-2.7-3.5-2.4-1.6 0.3-2.8 1.9-2.4 3.8 0.3 1.1 1.2 1.8 1.2 1.8s-3 1.7-2.6 4.6c0.1 0.3 0.2 0.7 0.4 1h-4.3l-2.9-12.9-2.8 12.9h-6.6l-4.8-19.1h5.9l2.7 13.1 2.9-13.1h5.1l3 13.1 2.7-13.1h5.9l2.7 13.2 2.9-13.1h5.1l3 13.1 2.7-13.1h5.9l-4.7 19.1z"/><path class="st0" d="m73.8 13.4l2-6.4h1.3l1.9 6.4 1.9-6.4h1.4l-2.6 8.3h-1.3l-2-6.4-2 6.4h-1.3l-2.5-8.3h1.4l1.8 6.4z"/><path class="st0" d="m83.5 11.1c0-2.6 1.5-4.3 3.8-4.3 2.2 0 3.8 1.7 3.8 4.3s-1.5 4.3-3.8 4.3c-2.3 0.1-3.8-1.6-3.8-4.3zm6.1 0c0-1.8-0.8-3.1-2.4-3.1s-2.4 1.3-2.4 3.1 0.8 3.1 2.4 3.1c1.6 0.1 2.4-1.2 2.4-3.1z"/><path class="st0" d="M94.5,3.5V8c0.5-0.7,1.3-1.2,2.5-1.2c2,0,2.9,1.2,2.9,3.2v5.2h-1.3v-5.1C98.7,8.9,98,8,96.8,8    c-1.1,0-1.9,0.7-2.2,1.5v5.8h-1.3V3.5H94.5z"/><path class="st0" d="m103.9 7v1.1c0.5-0.7 1.3-1.3 2.6-1.3 2 0 2.9 1.2 2.9 3.2v5.2h-1.3v-5.1c0-1.3-0.6-2.2-1.9-2.2-1.1 0-1.9 0.7-2.2 1.5v5.8h-1.3v-8.2h1.2z"/><path class="st0" d="m111.6 11.2c0-2.6 1.5-4.3 3.6-4.3 2.2 0 3.5 1.7 3.5 4.3v0.5h-5.8c0.1 1.6 1 2.7 2.4 2.7 1 0 1.7-0.5 2.2-1.1l0.8 0.9c-0.8 0.9-1.8 1.4-3.1 1.4-2.1-0.1-3.6-1.8-3.6-4.4zm3.6-3.2c-1.2 0-2.1 1-2.2 2.4h4.4c-0.1-1.4-0.8-2.4-2.2-2.4z"/><path class="st0" d="m122.1 7v1.1c0.5-0.7 1.3-1.3 2.6-1.3 2 0 2.9 1.2 2.9 3.2v5.2h-1.3v-5.1c0-1.3-0.6-2.2-1.9-2.2-1.1 0-1.9 0.7-2.2 1.5v5.8h-1.3v-8.2h1.2z"/><path class="st0" d="m135.7 3.5v4.5c0.5-0.7 1.3-1.2 2.5-1.2 2 0 2.9 1.2 2.9 3.2v5.2h-1.3v-5.1c0-1.3-0.6-2.2-1.9-2.2-1.1 0-1.9 0.7-2.2 1.5v5.8h-1.3v-11.7h1.3z"/><path class="st0" d="m143.3 11.2c0-2.6 1.5-4.3 3.6-4.3 2.2 0 3.5 1.7 3.5 4.3v0.5h-5.8c0.1 1.6 1 2.7 2.4 2.7 1 0 1.7-0.5 2.2-1.1l0.8 0.9c-0.8 0.9-1.8 1.4-3.1 1.4-2.1-0.1-3.6-1.8-3.6-4.4zm3.6-3.2c-1.2 0-2.1 1-2.2 2.4h4.4c-0.1-1.4-0.7-2.4-2.2-2.4z"/><path class="st0" d="m152.3 4.6c0-0.5 0.3-0.9 0.9-0.9s0.9 0.4 0.9 0.9-0.3 0.9-0.9 0.9c-0.5 0-0.9-0.4-0.9-0.9zm1.6 2.4v8.3h-1.3v-8.3h1.3z"/><path class="st0" d="m159.7 15.4v-1.3c0.3 0.1 0.7 0.1 1 0.1 1.4 0 2.3-0.7 2.3-2.2 0-1.4-1.2-2.3-2.9-2.3h-0.3v-1.1h0.2c1.5 0 2.1-0.9 2.1-2s-0.7-2-2-2c-1.5 0-2.2 1-2.2 2.8v7.9h-1.3v-7.8c0-2.7 1.3-4.1 3.5-4.1 2.1 0 3.4 1.4 3.4 3.1 0 1.1-0.7 2.1-1.5 2.5 1.1 0.2 2.4 1.2 2.4 3.1 0 2.4-1.7 3.4-3.7 3.4-0.4 0-0.8-0.1-1-0.1z"/><path class="st0" d="M166.9,7V4.3h1.3V7h2v1.2h-2V13c0,0.9,0.4,1.3,1,1.3c0.4,0,0.9-0.1,1.3-0.3v1.2c-0.4,0.2-1,0.3-1.6,0.3    c-1.3,0-2-0.8-2-2.2V8.2h-1.3V7H166.9z"/></svg>